<svg xmlns="http://www.w3.org/2000/svg" width="37.481" height="35.815" viewBox="0 0 37.481 35.815"><g transform="translate(0 -9.558)"><path d="M37.481,31.516V45.373H29.448V32.444c0-3.248-1.162-5.464-4.07-5.464a4.4,4.4,0,0,0-4.122,2.939,5.5,5.5,0,0,0-.266,1.959v13.5H12.953s.108-21.9,0-24.166h8.035v3.425c-.016.026-.037.053-.053.078h.053v-.078A7.979,7.979,0,0,1,28.23,20.64C33.518,20.639,37.481,24.094,37.481,31.516ZM4.547,9.558C1.8,9.558,0,11.361,0,13.733A4.162,4.162,0,0,0,4.441,17.91h.054c2.8,0,4.545-1.858,4.545-4.178A4.174,4.174,0,0,0,4.547,9.558ZM.477,45.373H8.51V21.207H.477Z" transform="translate(0)"/></g></svg>