<svg xmlns="http://www.w3.org/2000/svg" width="77.21" height="86.587" viewBox="0 0 77.21 86.587">
  <path id="html" d="M145.363,49.2a3.616,3.616,0,0,0-2.692-1.2H72.685a3.615,3.615,0,0,0-3.592,4.012l7.957,71.637a3.61,3.61,0,0,0,2.6,3.075l27.032,7.722a3.566,3.566,0,0,0,1.987,0l27.031-7.722a3.612,3.612,0,0,0,2.6-3.075l7.962-71.637A3.6,3.6,0,0,0,145.363,49.2ZM128.02,74.85H95.749l.766,9.186h30.729l-2.306,27.14-17.249,5.486-.169-.054-17.057-5.439-.933-11.058h8.355l.365,4.3,9.529,2.1,9.363-2.1.994-11.611H88.9L86.639,66.069h42.133Zm0,0" transform="translate(-69.072 -48)"/>
</svg>
