<svg xmlns="http://www.w3.org/2000/svg" width="39.921" height="89.153" viewBox="0 0 39.921 89.153"><defs><style>.a{fill:#fff;}.a,.b{fill-rule:evenodd;}</style></defs><g transform="translate(0 -0.203)"><path class="a" d="M30.645,96l-2.373-.811s.29-12.1-4.053-12.967c-2.894-3.358.464-142.412,10.884-.464,0,0-3.59,1.794-4.226,4.863-.7,3.011-.232,9.379-.232,9.379Z" transform="translate(-8.655 -6.649)"/><path class="b" d="M30.645,96l-2.373-.811s.29-12.1-4.053-12.967c-2.894-3.358.464-142.412,10.884-.464,0,0-3.59,1.794-4.226,4.863-.7,3.011-.232,9.379-.232,9.379Z" transform="translate(-8.655 -6.649)"/><path class="a" d="M34.917,77.8S55.7,64.137,50.837,35.712C46.148,15.046,35.091,8.272,33.875,5.667A29.225,29.225,0,0,1,31.27.573l.869,57.485c0,.058-1.795,17.6,2.779,19.742" transform="translate(-11.653 -0.138)"/><path class="b" d="M34.917,77.8S55.7,64.137,50.837,35.712C46.148,15.046,35.091,8.272,33.875,5.667A29.225,29.225,0,0,1,31.27.573l.869,57.485c0,.058-1.795,17.6,2.779,19.742" transform="translate(-11.653 -0.138)"/><path class="a" d="M18.4,78.414S-1.109,65.1.05,41.653C1.149,18.207,14.927,6.687,17.59,4.6,19.327,2.751,19.385,2.056,19.5.2c1.216,2.605.984,38.961,1.157,43.244C21.179,59.946,19.733,75.288,18.4,78.414Z" transform="translate(0)"/><path class="b" d="M18.4,78.414S-1.109,65.1.05,41.653C1.149,18.207,14.927,6.687,17.59,4.6,19.327,2.751,19.385,2.056,19.5.2c1.216,2.605.984,38.961,1.157,43.244C21.179,59.946,19.733,75.288,18.4,78.414Z" transform="translate(0)"/></g></svg>