<svg xmlns="http://www.w3.org/2000/svg" width="79.063" height="86.587" viewBox="0 0 79.063 86.587"><path d="M115.129,38.856l-31.7-17.817a8.029,8.029,0,0,0-7.794,0l-31.7,17.817A7.655,7.655,0,0,0,40,45.5V81.137a7.655,7.655,0,0,0,3.934,6.647l31.7,17.817a7.991,7.991,0,0,0,7.794,0l31.7-17.817a7.655,7.655,0,0,0,3.934-6.647V45.5A7.655,7.655,0,0,0,115.129,38.856Zm-35.6,47.054A22.589,22.589,0,1,1,97.5,49.658l-8.25,4.772a13.177,13.177,0,1,0,0,17.78l8.25,4.772A22.46,22.46,0,0,1,79.531,85.909ZM102.121,65.2H98.356v3.765H94.591V65.2H90.826V61.437h3.765V57.673h3.765v3.765h3.765Zm13.177,0h-3.765v3.765h-3.765V65.2H104V61.437h3.765V57.673h3.765v3.765H115.3Zm0,0" transform="translate(-40 -20.029)"/></svg>