<svg xmlns="http://www.w3.org/2000/svg" width="79.057" height="86.587" viewBox="0 0 79.057 86.587"><path d="M79.529,20a7.917,7.917,0,0,0-3.89,1.015L43.934,38.831A7.654,7.654,0,0,0,40,45.478V81.109a7.654,7.654,0,0,0,3.934,6.647l31.705,17.816a7.962,7.962,0,0,0,7.779,0l31.705-17.808a7.675,7.675,0,0,0,3.934-6.654V45.478a7.654,7.654,0,0,0-3.934-6.647L83.418,21.015A7.917,7.917,0,0,0,79.529,20Zm0,20.706a22.462,22.462,0,0,1,17.963,8.919L89.242,54.4a13.176,13.176,0,1,0,0,17.779l8.25,4.779A22.581,22.581,0,1,1,79.529,40.706ZM98.352,53.882h3.765v3.765h3.765V53.882h3.765v3.765h3.765v3.765h-3.765v3.765h3.765V68.94h-3.765v3.765h-3.765V68.94h-3.765v3.765H98.352V68.94H94.587V65.176h3.765V61.411H94.587V57.646h3.765Zm3.765,7.529v3.765h3.765V61.411Zm0,0" transform="translate(-40 -20)"/></svg>