<svg xmlns="http://www.w3.org/2000/svg" width="86.587" height="86.587" viewBox="0 0 86.587 86.587"><path d="M121.095,40H45.5A5.5,5.5,0,0,0,40,45.5v75.586a5.5,5.5,0,0,0,5.5,5.5h75.586a5.5,5.5,0,0,0,5.5-5.492V45.5A5.5,5.5,0,0,0,121.095,40ZM87.417,106.349c0,8.238-4.832,11.991-11.886,11.991a14.474,14.474,0,0,1-12.853-8.246l6.483-3.922c1.248,2.215,3.149,3.922,5.887,3.922,2.617,0,4.123-1.023,4.123-5V79.17h8.246ZM105.3,118.34c-7.3,0-11.452-3.68-13.763-8.246l6.185-4.123c1.683,2.754,3.519,5.388,7.4,5.388,3.262,0,4.969-1.627,4.969-3.882,0-2.69-1.772-3.648-5.355-5.218l-1.965-.845C97.1,99,93.32,95.969,93.32,89.559c0-5.895,4.5-10.389,11.524-10.389,5,0,8.593,1.74,11.186,6.3l-6.12,3.938c-1.353-2.424-2.8-3.374-5.066-3.374-2.3,0-3.761,1.466-3.761,3.374,0,2.36,1.458,3.31,4.832,4.776l1.965.845c6.692,2.859,10.461,5.782,10.461,12.353C118.34,114.459,112.776,118.34,105.3,118.34Zm0,0" transform="translate(-40 -40)"/></svg>