<svg xmlns="http://www.w3.org/2000/svg" width="63.847" height="86.587" viewBox="0 0 63.847 86.587"><g transform="translate(-3.994 -0.001)"><path d="M24.634,37.406s-3.328,2.024,2.314,2.6c6.792.866,10.409.722,17.926-.722a27.112,27.112,0,0,0,4.77,2.314c-16.912,7.23-38.315-.433-25.013-4.194Zm-2.165-9.4s-3.615,2.746,2.024,3.328a68.476,68.476,0,0,0,23.135-1.155A8.821,8.821,0,0,0,51.1,32.348c-20.386,6.072-43.229.579-28.628-4.337Zm39.9,16.479s2.457,2.024-2.746,3.615c-9.687,2.9-40.626,3.761-49.3,0-3.036-1.3,2.746-3.179,4.6-3.469a14.458,14.458,0,0,1,2.9-.433C14.492,41.886-4.3,48.97,8.28,50.992c34.554,5.639,63.036-2.457,54.071-6.5ZM26.2,18.175s-15.759,3.761-5.639,5.06c4.338.579,12.866.433,20.819-.143,6.5-.579,13.015-1.732,13.015-1.732a34.843,34.843,0,0,0-3.9,2.024C34.443,27.578,3.645,25.7,12.466,21.36A29.968,29.968,0,0,1,26.2,18.18Zm28.2,15.759c16.192-8.388,8.675-16.479,3.469-15.469a9.139,9.139,0,0,0-1.881.579,2.478,2.478,0,0,1,1.445-1.155C67.692,14.273,75.788,28.731,54.1,34.367a1.809,1.809,0,0,0,.29-.433Zm-26.6,22.843c15.613,1.012,39.47-.579,40.047-7.955,0,0-1.155,2.9-12.866,5.06a130.33,130.33,0,0,1-39.47.579s2.024,1.732,12.29,2.314Z" transform="translate(0 29.536)"/><path d="M31.576,0s8.965,9.108-8.529,22.843c-14.025,11.132-3.179,17.493,0,24.723C14.8,40.194,8.879,33.686,12.927,27.617,18.853,18.65,35.191,14.339,31.576,0ZM26.976,41.5C31.17,46.266,25.82,50.6,25.82,50.6s10.7-5.493,5.782-12.29c-4.481-6.5-7.955-9.687,10.842-20.529,0,0-29.637,7.373-15.469,23.711Z" transform="translate(13.011 0)"/></g></svg>