<svg xmlns="http://www.w3.org/2000/svg" width="81.411" height="91.735" viewBox="0 0 81.411 91.735"><path d="M40.706,91.735a7.39,7.39,0,0,1-3.539-.927L25.957,84.15c-1.686-.927-.843-1.264-.337-1.433a20.407,20.407,0,0,0,5.057-2.276.775.775,0,0,1,.843.084l8.6,5.141a1.071,1.071,0,0,0,1.011,0L74.753,66.2a.968.968,0,0,0,.506-.927V26.421a.968.968,0,0,0-.506-.927L41.127,6.11a1.071,1.071,0,0,0-1.011,0L6.489,25.494a1.057,1.057,0,0,0-.506.927V65.273a1.057,1.057,0,0,0,.506.927l9.186,5.309c4.972,2.529,8.091-.421,8.091-3.371V29.792a1.025,1.025,0,0,1,1.011-1.011h4.3a1.025,1.025,0,0,1,1.011,1.011V68.138c0,6.658-3.624,10.535-9.945,10.535-1.938,0-3.455,0-7.753-2.107L3.54,71.509A7.112,7.112,0,0,1,0,65.357V26.505a7.113,7.113,0,0,1,3.54-6.152L37.166.885a7.521,7.521,0,0,1,7.079,0L77.872,20.353a7.113,7.113,0,0,1,3.539,6.152V65.357a7.112,7.112,0,0,1-3.539,6.152L44.245,90.977a8.625,8.625,0,0,1-3.539.758ZM51.072,65.019c-14.748,0-17.782-6.742-17.782-12.473A1.025,1.025,0,0,1,34.3,51.535h4.383a.866.866,0,0,1,.927.843c.674,4.466,2.612,6.658,11.546,6.658,7.079,0,10.113-1.6,10.113-5.394,0-2.191-.843-3.792-11.883-4.888C40.2,47.827,34.469,45.8,34.469,38.472c0-6.826,5.731-10.872,15.338-10.872,10.787,0,16.1,3.708,16.771,11.8a1.359,1.359,0,0,1-.253.758,1.04,1.04,0,0,1-.674.337H61.269a.987.987,0,0,1-.927-.758c-1.011-4.635-3.624-6.152-10.535-6.152-7.753,0-8.68,2.7-8.68,4.719,0,2.444,1.1,3.2,11.546,4.551C63.039,44.2,67.927,46.141,67.927,53.389c-.084,7.416-6.152,11.63-16.855,11.63Z"/></svg>