<svg xmlns="http://www.w3.org/2000/svg" width="89.073" height="87.218" viewBox="0 0 89.073 87.218"><g transform="translate(-107.572 -81.892)"><path d="M130.565,93.563c0-6,1.647-9.271,10.74-10.827a68.667,68.667,0,0,1,21.472,0c5.832.941,10.74,5.188,10.74,10.827v19.811a10.646,10.646,0,0,1-10.74,10.57H141.305c-7.287,0-13.429,6.075-13.429,12.943v9.5h-7.383c-6.245,0-9.881-4.4-11.409-10.563-2.06-8.276-1.973-13.207,0-21.133a13.339,13.339,0,0,1,13.422-10.563h29.539v-2.645h-21.48V93.562Z" transform="translate(0)"/><path d="M158.771,142.7c0,6-5.33,9.046-10.74,10.563a37.1,37.1,0,0,1-21.472,0c-5.681-1.618-10.74-4.923-10.74-10.563V122.886a10.779,10.779,0,0,1,10.74-10.57h21.472A13.58,13.58,0,0,0,161.46,99.11v-9.24h8.051c6.253,0,9.2,4.542,10.74,10.563,2.148,8.362,2.243,14.615,0,21.133-2.172,6.331-4.495,10.563-10.74,10.563H137.3v2.645h21.472V142.7Z" transform="translate(14.747 14.264)"/><path d="M117.744,88.151a4.027,4.027,0,1,1,4.026,3.959A3.992,3.992,0,0,1,117.744,88.151Zm24.161,66.028a4.026,4.026,0,1,1,4.026,3.967A4,4,0,0,1,141.905,154.178Z" transform="translate(18.191 4.098)"/></g></svg>