<svg xmlns="http://www.w3.org/2000/svg" width="290" height="188.374" viewBox="0 0 290 188.374"><defs><style>.a{fill:#eee;}.b{fill:#f8f8f8;}.c,.i{fill:#fff;}.d{fill:#8d93c2;}.e{fill:#6e74ac;}.f{fill:#b5bae2;}.g{fill:#d6d6d6;}.h,.k,.n{fill:none;}.h,.i{stroke:#c5c5c5;}.j{fill:#c5caee;}.k,.l{stroke:#e9e9e9;}.l{fill:#8188c5;}.m{stroke:none;}</style></defs><g transform="translate(-972 -321)"><rect class="a" width="228.09" height="188.374" transform="translate(1033.91 321)"/><rect class="b" width="228.09" height="23.461" transform="translate(1033.91 321)"/><rect class="c" width="44.694" height="35.334" rx="4" transform="translate(1051.446 376.198)"/><rect class="c" width="44.694" height="35.334" rx="4" transform="translate(1100.974 376.198)"/><rect class="c" width="44.694" height="35.334" rx="4" transform="translate(1150.502 376.198)"/><rect class="c" width="44.694" height="35.334" rx="4" transform="translate(1200.03 376.198)"/><rect class="c" width="44.694" height="35.334" rx="4" transform="translate(1100.974 419.209)"/><rect class="c" width="44.694" height="35.334" rx="4" transform="translate(1150.502 419.209)"/><rect class="d" width="63.865" height="188.337" transform="translate(972 321)"/><rect class="e" width="63.865" height="23.461" transform="translate(972 321)"/><rect class="f" width="15.64" height="11.73" rx="5.865" transform="translate(1051.506 350.978)"/><rect class="g" width="11.73" height="7.169" rx="3.584" transform="translate(1075.618 353.584)"/><rect class="g" width="11.73" height="7.169" rx="3.584" transform="translate(1095.82 353.584)"/><rect class="g" width="11.73" height="7.169" rx="3.584" transform="translate(1116.022 353.584)"/><rect class="g" width="7.169" height="7.169" rx="3.584" transform="translate(1136.225 353.584)"/><g transform="translate(1057.697 382.584)"><line class="h" x2="33.236"/><line class="h" x2="19.551" transform="translate(0 5.213)"/><line class="h" x2="29.326" transform="translate(0 11.079)"/><line class="h" x2="4.562" transform="translate(0 16.944)"/></g><g transform="translate(1106.444 382.584)"><path class="h" d="M-2.2,0H31.167" transform="translate(2.198)"/><path class="h" d="M-1.84,0H30.64" transform="translate(2.073 5.213)"/><line class="h" x2="18.899" transform="translate(0.129 11.079)"/></g><path class="h" d="M2.455,0H36.342" transform="translate(1153.646 382.584)"/><line class="h" x2="5.213" transform="translate(1156.101 387.798)"/><line class="h" x2="33.888" transform="translate(1156.101 393.663)"/><line class="h" x2="29.326" transform="translate(1206.281 382.584)"/><line class="h" x2="22.157" transform="translate(1206.281 387.798)"/><line class="h" x2="9.124" transform="translate(1206.281 393.663)"/><line class="h" x2="26.719" transform="translate(1206.281 399.528)"/><line class="h" x2="33.236" transform="translate(1105.921 425.595)"/><line class="h" x2="33.236" transform="translate(1156.101 425.595)"/><line class="h" x2="29.978" transform="translate(1156.101 432.112)"/><line class="h" x2="6.517" transform="translate(1156.101 438.629)"/><line class="h" x2="18.247" transform="translate(1156.101 445.146)"/><line class="h" x2="31.281" transform="translate(1105.921 432.112)"/><line class="h" x2="20.854" transform="translate(1105.921 438.629)"/><line class="h" x2="16.292" transform="translate(1105.921 445.146)"/><g transform="translate(1051.446 419.209)"><rect class="c" width="44.694" height="35.334" rx="4" transform="translate(0)"/><line class="h" x2="33.236" transform="translate(4.947 6.387)"/><line class="h" x2="25.416" transform="translate(4.947 12.904)"/><line class="h" x2="16.944" transform="translate(4.947 19.42)"/><line class="h" x2="28.022" transform="translate(4.947 25.937)"/></g><line class="h" x2="12.382" transform="translate(1063.562 332.405)"/><g class="i" transform="translate(1051.506 330.124)"><circle class="m" cx="2.281" cy="2.281" r="2.281"/><circle class="n" cx="2.281" cy="2.281" r="1.781"/></g><rect class="d" width="63.865" height="24.112" transform="translate(972 343.809)"/><rect class="j" width="63.865" height="24.112" transform="translate(972 367.27)"/><rect class="d" width="63.865" height="24.112" transform="translate(972 390.079)"/><rect class="d" width="63.865" height="24.112" transform="translate(972 413.539)"/><g transform="translate(979.169 352.281)"><line class="k" x2="31.281" transform="translate(14.011 3.584)"/><line class="k" x2="31.281" transform="translate(14.011 27.045)"/><line class="k" x2="31.281" transform="translate(14.011 50.506)"/><line class="k" x2="31.281" transform="translate(14.011 73.966)"/><g class="l"><circle class="m" cx="3.524" cy="3.524" r="3.524"/><circle class="n" cx="3.524" cy="3.524" r="3.024"/></g><g class="l" transform="translate(0 23.962)"><circle class="m" cx="3.524" cy="3.524" r="3.524"/><circle class="n" cx="3.524" cy="3.524" r="3.024"/></g><g class="l" transform="translate(0 47.924)"><circle class="m" cx="3.524" cy="3.524" r="3.524"/><circle class="n" cx="3.524" cy="3.524" r="3.024"/></g><g class="l" transform="translate(0 71.885)"><circle class="m" cx="3.524" cy="3.524" r="3.524"/><circle class="n" cx="3.524" cy="3.524" r="3.024"/></g></g></g></svg>