<svg xmlns="http://www.w3.org/2000/svg" width="44.184" height="43.103" viewBox="0 0 44.184 43.103"><g transform="translate(0 -5.365)"><path d="M41.221,16.368a22,22,0,0,0-8.04-8.04A21.608,21.608,0,0,0,22.092,5.365,21.611,21.611,0,0,0,11,8.328a21.993,21.993,0,0,0-8.04,8.04A21.61,21.61,0,0,0,0,27.456,21.47,21.47,0,0,0,4.214,40.444,21.637,21.637,0,0,0,15.1,48.426a1.288,1.288,0,0,0,1.15-.2,1.125,1.125,0,0,0,.374-.863q0-.086-.015-1.553t-.015-2.56l-.662.114a8.439,8.439,0,0,1-1.6.1,12.164,12.164,0,0,1-2-.2,4.467,4.467,0,0,1-1.927-.862,3.65,3.65,0,0,1-1.265-1.769l-.288-.662A7.188,7.188,0,0,0,7.953,38.5,3.471,3.471,0,0,0,6.7,37.41l-.2-.144a2.112,2.112,0,0,1-.374-.345,1.578,1.578,0,0,1-.259-.4q-.086-.2.144-.331a1.866,1.866,0,0,1,.834-.129l.575.086a4.2,4.2,0,0,1,1.424.69,4.643,4.643,0,0,1,1.4,1.5,5.071,5.071,0,0,0,1.6,1.8,3.387,3.387,0,0,0,1.884.618,8.18,8.18,0,0,0,1.64-.143,5.721,5.721,0,0,0,1.294-.432,4.661,4.661,0,0,1,1.409-2.963,19.7,19.7,0,0,1-2.948-.518,11.739,11.739,0,0,1-2.7-1.122A7.744,7.744,0,0,1,10.1,33.64a9.262,9.262,0,0,1-1.51-3.02A14.363,14.363,0,0,1,8,26.305a8.39,8.39,0,0,1,2.273-5.926,7.733,7.733,0,0,1,.2-5.868,4.031,4.031,0,0,1,2.474.388,17.3,17.3,0,0,1,2.4,1.108q.763.46,1.223.777a20.775,20.775,0,0,1,11.047,0l1.093-.69a15.481,15.481,0,0,1,2.646-1.266,3.77,3.77,0,0,1,2.331-.316,7.658,7.658,0,0,1,.23,5.868,8.392,8.392,0,0,1,2.273,5.926,14.524,14.524,0,0,1-.59,4.329,8.9,8.9,0,0,1-1.524,3.02,8.042,8.042,0,0,1-2.33,1.913,11.762,11.762,0,0,1-2.7,1.122,19.676,19.676,0,0,1-2.948.518,5.123,5.123,0,0,1,1.5,4.084v6.069a1.146,1.146,0,0,0,.36.863,1.249,1.249,0,0,0,1.136.2A21.634,21.634,0,0,0,39.97,40.443a21.474,21.474,0,0,0,4.214-12.987A21.627,21.627,0,0,0,41.221,16.368Z" transform="translate(0)"/></g></svg>